<?xml version="1.0" standalone="no"?><!DOCTYPE svg PUBLIC "-//W3C//DTD SVG 1.1//EN" "http://www.w3.org/Graphics/SVG/1.1/DTD/svg11.dtd"><svg t="1505371545836" class="icon" style="" viewBox="0 0 1024 1024" version="1.1" xmlns="http://www.w3.org/2000/svg" p-id="15817" xmlns:xlink="http://www.w3.org/1999/xlink" width="200" height="200"><defs><style type="text/css"></style></defs><path d="M531.42 1023.265c-66.163 0-130.418-12.453-190.857-37.14-58.418-23.73-110.806-57.747-155.83-101.095-45.025-43.348-80.358-93.86-105.083-150.064-25.565-58.19-38.538-120.015-38.538-183.75 0-76.264 19.421-151.975 56.128-219.054 35.485-64.802 87.034-121.705 149.115-164.538 17.246-11.903 41.208-8.045 53.533 8.522 12.324 16.568 8.394 39.601-8.852 51.43-52.465 36.295-96.002 84.271-125.916 138.97-31.403 57.344-47.314 119.464-47.314 184.67 0 106.385 43.04 206.415 121.184 281.613C317.096 908.063 420.958 949.5 531.42 949.5c110.425 0 214.325-41.438 292.469-116.672C902.033 757.63 945.035 657.6 945.035 551.215c0-65.132-15.873-127.362-47.314-184.669-29.914-54.662-73.489-102.675-125.954-138.897-17.208-11.828-21.215-34.862-8.852-51.43 12.363-16.567 36.287-20.46 53.495-8.522 62.119 42.834 113.744 99.737 149.192 164.538 36.744 67.079 56.166 142.79 56.166 219.054 0 63.736-12.973 125.561-38.576 183.787-24.688 56.205-60.058 106.716-105.083 150.064-45.024 43.348-97.413 77.328-155.83 101.17-60.478 24.539-124.695 36.955-190.858 36.955z m11.524-512.238c-21.177 0-38.347-16.458-38.347-36.883V36.92C504.597 16.568 521.767 0 542.944 0s38.385 16.568 38.385 36.92v437.224c0 20.425-17.208 36.883-38.385 36.883z" p-id="15818" fill="#ffffff"></path></svg>