<svg id="图层_1" data-name="图层 1" xmlns="http://www.w3.org/2000/svg" viewBox="0 0 982.83 981.38"><defs><style>.cls-1{fill:#3d4470;}.cls-2{fill:none;stroke:#fcfcfc;stroke-width:60px;fill-rule:evenodd;}.cls-2,.cls-4{stroke-miterlimit:10;}.cls-3{fill:#fff;}.cls-4{fill:#fefefe;stroke:#fff;stroke-width:8px;}</style></defs><title>1</title><circle class="cls-1" cx="491.93" cy="490.74" r="490.57"/><path class="cls-2" d="M518.47,820.3a342.7,342.7,0,0,1-37.54,2.06c-187.21,0-339-151.76-339-339s151.76-339,339-339,339,151.76,339,339"/><rect class="cls-3" x="474.7" y="263.86" width="52" height="259.03" rx="12" ry="12"/><rect class="cls-3" x="364.43" y="365.1" width="55.52" height="269.03" rx="12" ry="12" transform="translate(891.8 107.43) rotate(90)"/><path class="cls-4" d="M643.79,665.17,586.85,599.8q-10.35-10.45-10.35-20.92,3.44-31.38,48.32-35.3,29.32,2.64,39.69,17l38,51,36.24-51q12.05-15.69,41.41-17,41.41,3.92,46.59,35.3,0,10.48-10.35,20.92l-55.22,65.37,62.12,71.91q10.35,13.08,10.35,22.23-1.74,30.09-48.32,31.38-29.36,0-44.87-18.3l-38-52.3-39.69,52.3q-17.27,18.32-44.87,18.3-48.33-1.32-48.32-31.38,0-11.77,12.08-22.23Zm17.26,0-58.67,65.37q-19,19.61-17.26,27.46,0,24.85,36.24,24.84,17.23,1.32,31.06-18.3l50-65.37,50,66.68q12.05,18.32,34.51,17,31.06-3.92,31.06-26.15-1.74-6.53-17.26-22.23a4.55,4.55,0,0,1-1.73-3.92L745.6,665.17l51.77-62.75q13.79-14.37,13.8-23.53Q806,558,781.84,555.35q-24.19,1.32-32.79,14.38L702.46,635.1,657.6,569.73Q642.07,554,623.09,555.35q-32.8,2.64-29.34,26.15,0,6.56,10.35,19.61a14.79,14.79,0,0,0,3.45,3.92Z"/></svg>