<svg id="图层_1" data-name="图层 1" xmlns="http://www.w3.org/2000/svg" viewBox="0 0 559.88 570.33"><defs><style>.cls-1{fill:#fff;}.cls-2{fill:none;stroke:#fff;stroke-miterlimit:10;stroke-width:27px;}</style></defs><title>分销管理-01</title><path class="cls-1" d="M556.84,357.14l2.36,6.22-28.37,36.08c-4.73,6.22-4.73,16.17,0,22.39l28.37,34.83-2.36,6.22c-5.91,17.42-14.19,34.83-26,48.52l-4.73,5-43.74-7.46c-7.09-1.24-15.37,3.73-17.73,11.2l-15.37,44.78-5.91,1.24a154,154,0,0,1-67.38,0l-7.09-1.24-14.19-43.54c-2.36-7.46-10.64-12.44-17.73-11.2L292,517.62l-4.73-5a81.86,81.86,0,0,1-14.19-21.15c-4.73-8.71-9.46-18.66-11.82-28.61l-2.36-6.22,29.55-34.83c4.73-6.22,4.73-16.17,0-21.15L260.12,364.6l2.36-6.22c5.91-18.66,15.37-34.83,27.19-49.76l4.73-5L337,311.11c7.09,1.24,15.37-3.73,18.91-11.2l15.37-43.54,5.91-1.24a148.63,148.63,0,0,1,66.2,0l7.09,1.24,14.19,42.3c2.36,7.46,10.64,13.68,18.91,12.44l43.74-6.22,4.73,5c5.91,7.46,10.64,13.68,14.19,22.39,3.55,6.22,7.09,16.17,10.64,24.88Zm-33.1-14.93a84.39,84.39,0,0,0-8.28-13.68l-30.74,3.73c-18.91,2.49-37.83-10-43.74-28.61L431.53,275A122.26,122.26,0,0,0,389,275l-10.64,29.86c-5.91,18.66-26,31.1-44.92,27.37l-29.55-5c-7.09,8.71-11.82,19.9-16.55,29.86L307.41,382c11.82,14.93,11.82,38.56,0,53.49l-20.1,24.88a116.22,116.22,0,0,0,8.28,17.42,44.77,44.77,0,0,0,8.28,12.44l31.92-5c18.91-2.49,37.83,10,43.74,28.61L389,543.74a129.1,129.1,0,0,0,43.74,0l10.64-31.1c5.91-18.66,26-31.1,43.74-27.37l29.55,5c5.91-8.71,11.82-18.66,15.37-29.86L513.1,436.76c-11.82-14.93-13-38.56-1.18-53.49L532,358.38c-2.36-5-4.73-10-8.28-16.17ZM410.26,466.61c-29.55,0-53.2-24.88-53.2-56s23.64-56,53.2-56,53.2,24.88,53.2,56S438.63,466.61,410.26,466.61Zm0-24.88c16.55,0,29.55-13.68,29.55-31.1s-13-31.1-29.55-31.1-29.55,13.68-29.55,31.1S393.71,441.73,410.26,441.73Z"/><circle class="cls-2" cx="233" cy="148.33" r="132"/><path class="cls-2" d="M246,279.83s-121,8.5-180.33,89.83C12.39,442.7,12.5,534.33,12.5,534.33"/></svg>