<?xml version="1.0" standalone="no"?><!DOCTYPE svg PUBLIC "-//W3C//DTD SVG 1.1//EN" "http://www.w3.org/Graphics/SVG/1.1/DTD/svg11.dtd"><svg t="1508832830858" class="icon" style="" viewBox="0 0 1024 1024" version="1.1" xmlns="http://www.w3.org/2000/svg" p-id="6456" xmlns:xlink="http://www.w3.org/1999/xlink" width="200" height="200"><defs><style type="text/css"></style></defs><path d="M154.142148 849.052502l66.715471 0 0-15.395642L220.857619 361.517707l134.457318-55.42431 0 540.906353 63.636343 0 0-9.236362 0-42.082444L418.951279 739.229235 418.951279 622.221334l0-408.728962 135.483694-98.074689 199.119013 98.074689L753.553986 388.204509l114.955148 53.371558 0 408.502811 45.11143 0 0 58.503439-759.477394 0L154.143171 849.052502zM727.264227 271.770683l-173.45961-59.529815 0 69.794599 173.45961 67.741847L727.264227 271.770683zM727.264227 442.545138l-173.45961-59.530838 0 69.794599 173.45961 67.741847L727.264227 442.545138zM727.264227 613.31857l-173.45961-59.529815 0 69.793576 173.45961 67.741847L727.264227 613.31857zM241.705436 490.837005l95.432513-22.974247 1.026376-75.952856-96.459912 30.15888L241.704412 490.837005zM241.705436 642.24846l95.432513-22.974247 1.026376-75.952856-96.459912 30.159904L241.704412 642.24846zM241.705436 793.660938l95.432513-22.974247 1.026376-75.952856-96.459912 30.15888L241.704412 793.660938zM763.833097 849.961198l82.098833 0L845.93193 483.801774l-82.098833-32.020274L763.833097 849.961198z" p-id="6457" fill="#ffffff"></path></svg>