<?xml version="1.0" standalone="no"?><!DOCTYPE svg PUBLIC "-//W3C//DTD SVG 1.1//EN" "http://www.w3.org/Graphics/SVG/1.1/DTD/svg11.dtd"><svg t="1508833672161" class="icon" style="" viewBox="0 0 1306 1024" version="1.1" xmlns="http://www.w3.org/2000/svg" p-id="7720" xmlns:xlink="http://www.w3.org/1999/xlink" width="255.078125" height="200"><defs><style type="text/css"></style></defs><path d="M431.197582 257.763556c-68.152889-9.955556-125.639111-68.209778-119.466666-139.093334 5.973333-70.883556 66.645333-123.875556 135.310222-118.243555 68.664889 5.461333 124.501333 68.067556 113.322666 138.439111-13.482667 84.963556-62.663111 128.682667-129.137777 118.897778m288.796444 349.098666c-9.159111 0.995556-20.650667-4.295111-29.639111-11.434666-50.346667-39.082667-139.662222-162.616889-174.990222-11.406223-16.014222 115.768889 3.811556 204.515556 159.146666 398.108445 6.826667 8.448 8.675556 26.311111-6.343111 26.993778-15.160889 0.654222-31.488-8.448-31.488-8.448-50.346667-22.044444-83.000889-60.615111-154.652444-130.986667-60.501333-58.965333-122.993778-73.528889-133.489778-0.853333a79.388444 79.388444 0 0 0-0.682667 10.780444c0.341333 45.511111 1.166222 87.779556 4.835556 118.897778 2.161778 18.375111-21.987556 27.989333-33.507556 13.084444C266.219804 943.36 201.224249 781.084444 209.899804 535.324444c0-42.894222-42.325333-48.014222-168.334222 103.822223-36.152889 43.548444-66.503111 19.057778-12.003555-99.84 0 0 120.490667-241.948444 366.990222-236.003556 172.999111 15.587556 265.329778 144.924444 322.474667 260.181333 5.688889 11.264 9.841778 19.854222 11.832888 26.481778 2.332444 7.623111-2.844444 16.071111-10.808888 16.896m308.622222 32.625778c-52.138667 10.439111-120.632889-19.370667-132.152889-73.187556-11.320889-53.987556 38.826667-111.473778 91.022222-121.884444 52.138667-10.439111 103.651556 24.661333 115.143111 78.648889 11.320889 53.816889-21.674667 105.984-74.012444 116.423111m274.830222-24.519111c-9.329778 18.403556-30.321778 39.765333-98.503111 85.788444-21.475556 14.563556-43.804444 47.217778-47.985778 72.362667-5.006222 31.630222 5.006222 62.435556 16.156445 106.496 8.163556 33.28 15.843556 83.797333 3.697777 115.768889-4.693333 12.060444-20.508444 14.392889-25.856 2.474667-15.160889-34.275556-33.336889-80.810667-89.002666-90.908445-56.32-4.323556-77.482667 33.934222-78.307556 86.755556-0.341333 16.071111-17.351111 21.361778-30.350222 8.448-15.160889-15.559111-28.16-37.745778-38.314667-97.365334-12.686222-75.377778 6.656-110.307556-24.832-134.314666-22.186667-17.066667-119.324444-30.151111-162.986666-78.506667-8.021333-8.931556-2.503111-22.670222 9.472-24.32 52.167111-6.627556 143.160889 20.024889 294.684444 2.304 112.64-14.734222 202.296889-67.555556 251.136-84.935111 16.156444-5.802667 31.175111 9.585778 20.992 29.952" fill="#ffffff" p-id="7721"></path></svg>