<?xml version="1.0" standalone="no"?><!DOCTYPE svg PUBLIC "-//W3C//DTD SVG 1.1//EN" "http://www.w3.org/Graphics/SVG/1.1/DTD/svg11.dtd"><svg t="1509514324655" class="icon" style="" viewBox="0 0 1024 1024" version="1.1" xmlns="http://www.w3.org/2000/svg" p-id="2997" xmlns:xlink="http://www.w3.org/1999/xlink" width="200" height="200"><defs><style type="text/css"></style></defs><path d="M108.591719 832.254931c0 0-0.25378 0-0.379647 0L77.192591 531.24532l436.777785 0-26.660196 259.090896C367.398136 811.752991 243.317143 832.254931 108.591719 832.254931zM64.334749 485.409388l462.649012 0 29.060873-42.771129 0.031722-72.464405L35.115264 370.173854l0.474814 72.370261L64.334749 485.409388zM821.201689 747.18544c22.522969 0 44.066635 1.105171 64.757886 3.316535 17.217127-32.536021 34.305317-73.223698 50.321082-123.984802l34.43016-109.234867c7.234775-22.933315-5.495154-47.350424-28.396747-54.585199l-2.243087-0.694825-16.615423 52.690036c-9.444093 29.724998-36.641525 49.688679-67.757197 49.688679-7.266497 0-14.435781-1.105171-21.3871-3.317559-18.099217-5.716188-32.882921-18.130939-41.663912-34.936697-8.783037-16.868179-10.456143-36.106336-4.707209-54.205553l16.5837-52.627614-2.275833-0.726547c-22.868847-7.233752-47.350424 5.464455-54.552453 28.430516l-34.431184 109.171422c-27.926026 88.51087-34.969443 154.027026-31.969109 201.756073C729.626018 751.450581 776.378831 747.18544 821.201689 747.18544zM81.803609 294.739814C81.709465 176.88257 177.455109 80.914868 295.248909 80.8197c0.031722 0 0.064468 0 0.064468 0 117.826546 0 213.760478 95.77839 213.887368 213.414601l-0.190335 28.145014 45.835931 0 0.190335-28.018124c-0.127913-143.066393-116.626207-259.408121-259.6926-259.408121l-0.125867 0c-143.098115 0.125867-259.375375 116.688629-259.249509 259.817444l0 27.607778 45.835931 0L81.804632 294.739814zM944.178535 212.608236c-20.50194-6.507204-42.391483 4.928243-48.869011 25.429159l-76.79299 243.548922c-6.474458 20.532639 4.928243 42.392506 25.432229 48.867988 20.531616 6.475482 42.390459-4.928243 48.897663-25.397437l76.791967-243.581668C976.082152 240.943584 964.711174 219.053018 944.178535 212.608236zM946.673355 265.614473c-3.03308 9.635451-13.298887 15.036461-22.966061 12.003382-9.665127-3.063779-15.035438-13.394055-12.003382-23.028483 3.063779-9.66615 13.394055-15.003715 23.029506-11.94096C944.367847 245.650793 949.737134 255.948323 946.673355 265.614473zM4.253372 988.302987l0-114.446565c34.05256 2.811022 69.053726 4.233418 104.338347 4.233418 149.857053 0 291.375184-25.460882 416.245146-47.920406 106.170065-19.079544 206.464305-37.116339 296.364825-37.116339 79.636758 0 143.382595 13.836123 199.484334 43.466977l0 151.783938L4.253372 988.30401 4.253372 988.302987z" p-id="2998" fill="#ffffff"></path></svg>