<?xml version="1.0" standalone="no"?><!DOCTYPE svg PUBLIC "-//W3C//DTD SVG 1.1//EN" "http://www.w3.org/Graphics/SVG/1.1/DTD/svg11.dtd"><svg t="1508833634470" class="icon" style="" viewBox="0 0 1024 1024" version="1.1" xmlns="http://www.w3.org/2000/svg" p-id="6962" xmlns:xlink="http://www.w3.org/1999/xlink" width="200" height="200"><defs><style type="text/css"></style></defs><path d="M818.139 679.957l-626.594-163.664c-15.485-3.302-17.147-17.285-17.147-17.285 46.297-170.165 212.259-276.249 383.678-253.391l6.183-22.96-1.558-0.413c-19.589-5.212-35.333-12.022-35.022-15.169l0.78-2.837c8.885-32.918 52.636-49.894 97.686-37.923 45.05 11.97 74.356 48.398 65.471 81.367l-0.727 2.837c-1.299 2.89-18.342 0.98-37.932-4.23l-1.715-0.464-6.183 22.909c160.038 65.322 250.45 239.615 204.829 409.986 0 0-5.767 12.848-31.748 1.238M273.227 621.963c11.015-32.3 33.462-27.708 33.462-27.708s422.18 106.444 429.039 108.146c6.859 1.755 11.535 11.97 0.156 12.538l-446.29 0c-15.069 0-29.306-12.538-34.658-33.177-3.897-14.86 2.079-28.275 14.237-25.85 12.211 2.425-4.417-9.133 4.053-33.951M862.98 839.598l-707.913 0c-20.005 0-36.269-16.149-36.269-36.066s16.263-36.015 36.269-36.015l707.913 0c20.057 0 36.32 16.098 36.32 36.015s-16.263 36.066-36.32 36.066z" p-id="6963" fill="#ffffff"></path></svg>