<?xml version="1.0" standalone="no"?><!DOCTYPE svg PUBLIC "-//W3C//DTD SVG 1.1//EN" "http://www.w3.org/Graphics/SVG/1.1/DTD/svg11.dtd"><svg t="1509603209351" class="icon" style="" viewBox="0 0 1024 1024" version="1.1" xmlns="http://www.w3.org/2000/svg" p-id="14271" xmlns:xlink="http://www.w3.org/1999/xlink" width="200" height="200"><defs><style type="text/css"></style></defs><path d="M342.677 595.002M900.201 385.021 738.452 546.775c-35.735 35.731-93.669 35.731-129.404 0l-32.35-32.354 64.7-64.695c17.87 17.861 46.834 17.861 64.704 0l97.049-97.054c17.865-17.865 17.865-46.834 0-64.7l-97.049-97.049c-17.87-17.87-46.834-17.87-64.704 0l-97.049 97.049c-17.865 17.865-17.865 46.834 0 64.7l-64.7 64.7-32.35-32.35c-35.735-35.731-35.735-93.669 0-129.399L609.048 93.873c35.735-35.735 93.669-35.735 129.404 0l161.749 161.749C935.936 291.352 935.936 349.29 900.201 385.021zM382.599 579.125l226.449-226.453 32.35 32.35L414.949 611.47 382.599 579.125zM382.599 514.42c-17.865-17.865-46.834-17.865-64.7 0l-97.054 97.049c-17.865 17.87-17.865 46.834 0 64.704l97.054 97.049c17.865 17.865 46.834 17.865 64.7 0l97.049-97.049c17.865-17.87 17.865-46.834 0-64.704l64.7-64.7 32.35 32.354c35.735 35.731 35.735 93.664 0 129.399L414.949 870.273c-35.731 35.731-93.669 35.731-129.399 0L123.796 708.524c-35.731-35.735-35.731-93.669 0-129.399l161.754-161.754c35.731-35.731 93.669-35.731 129.399 0l32.35 32.35L382.599 514.42z" p-id="14272" fill="#b9c5cf"></path></svg>