<?xml version="1.0" standalone="no"?><!DOCTYPE svg PUBLIC "-//W3C//DTD SVG 1.1//EN" "http://www.w3.org/Graphics/SVG/1.1/DTD/svg11.dtd"><svg t="1504493304798" class="icon" style="" viewBox="0 0 1024 1024" version="1.1" xmlns="http://www.w3.org/2000/svg" p-id="3697" xmlns:xlink="http://www.w3.org/1999/xlink" width="200" height="200"><defs><style type="text/css"></style></defs><path d="M512 569.02515c-45.37485 0-136.737725 25.14012-136.737725 70.51497v22.687425h273.47545v-22.687425c0-45.37485-91.362874-70.51497-136.737725-70.51497z m0-43.53533c37.403593 0 68.675449-30.658683 68.675449-68.675449 0-37.403593-30.658683-68.675449-68.675449-68.675449-38.016766 0-68.675449 30.658683-68.675449 68.675449 0 38.016766 30.658683 68.675449 68.675449 68.675449z" p-id="3698" fill="#b9c5cf"></path><path d="M512 0C229.326946 0 0 229.326946 0 512S229.326946 1024 512 1024 1024 794.673054 1024 512 794.673054 0 512 0zM717.413174 685.528144c0 25.14012-20.847904 45.37485-45.374851 45.37485H351.961677c-25.14012 0-45.37485-20.847904-45.374851-45.37485V366.064671c0-25.14012 20.847904-45.37485 45.374851-45.374851h22.687425v-45.37485h45.37485v45.37485h182.725749v-45.37485h45.37485v45.37485h22.687425c25.14012 0 45.37485 20.847904 45.37485 45.374851v319.463473h1.226348z" p-id="3699" fill="#b9c5cf"></path></svg>