<?xml version="1.0" encoding="utf-8"?>
<!-- Generator: Adobe Illustrator 21.0.0, SVG Export Plug-In . SVG Version: 6.00 Build 0)  -->
<svg version="1.1" id="图层_1" xmlns="http://www.w3.org/2000/svg" xmlns:xlink="http://www.w3.org/1999/xlink" x="0px" y="0px"
	 viewBox="0 0 200 200" style="enable-background:new 0 0 200 200;" xml:space="preserve">
<style type="text/css">
	.st0{fill:#B9C5CF;}
</style>
<path class="st0" d="M188.4,101.5h-26.9c-6.5,0-11.5,4.4-11.5,11.2v8.7c0,6.8,5,10.8,11.5,10.8h26.9c6.5,0,11.5-4.1,11.5-10.8v-8.7
	C200,105.9,195,101.5,188.4,101.5L188.4,101.5z M165.4,124.6c-4.3,0-7.7-3.5-7.7-7.7c0-4.3,3.5-7.7,7.7-7.7c4.3,0,7.7,3.5,7.7,7.7
	C173.1,121.1,169.6,124.6,165.4,124.6L165.4,124.6z M142.3,120.7V113c0-12,7.6-23,19.2-23l30.7,0V47.7c0-14.3-9.2-26.9-23-26.9
	l3.9,17.9c2.3,0.4,4.1,2.5,4.1,5.1l-0.4,7.8c0,2.8-1.1,3.8-3.8,3.8l-153.6,0c-2.7,0-3.8-1-3.8-3.8v-7.7c0-2.8,1.1-3.8,3.8-3.8h15.4
	l34.6-19.2H27.1c-13.9,0-26.9,13-26.9,27.3v112c0,14.3,11.3,25.8,25.1,25.8h140.4c13.9,0,26.5-12.6,26.5-26.8v-15.4h-30.7
	C150,143.7,142.3,132.7,142.3,120.7L142.3,120.7z M161.5,47.7l-10.5-25.5c-1.6-8.1-11-10.3-16.8-8.6L50.2,47.7H161.5L161.5,47.7z"/>
</svg>
