<svg id="图层_1" data-name="图层 1" xmlns="http://www.w3.org/2000/svg" viewBox="0 0 200 200"><defs><style>.cls-1{fill:#b9c5cf;}</style></defs><title>```</title><path class="cls-1" d="M70,9.27s-30.45,10.12-50.84,35C3,64,1.17,108.78,1.17,108.78L.72,188.34H85.31l-.45-79.64-19.12-.59c-4.83-.15-9.69-.21-14.52-.26-1.57,0-6,0-7.24,0H42c-.11-3.47.09-8.58,0-11.93-.17-6.7-.4-15.58,1.07-22.23s3.43-10.14,7.59-15.32c6-7.44,13.22-13.1,21.33-18.42,1.81-1.19,6.12-3.15,7.73-4.12Z"/><path class="cls-1" d="M183.39,8.67s-30.45,10.12-50.84,35c-16.18,19.74-18,64.49-18,64.49l-.45,79.56h84.59l-.45-79.64-19.12-.59c-4.83-.15-9.69-.21-14.52-.26-1.57,0-6,0-7.24,0h-2c-.11-3.47.09-8.58,0-11.93-.17-6.7-.4-15.58,1.07-22.23s3.43-10.14,7.59-15.32c6-7.44,13.22-13.1,21.33-18.42,1.81-1.19,6.12-3.15,7.73-4.12Z"/></svg>