<?xml version="1.0" encoding="utf-8"?>
<!-- Generator: Adobe Illustrator 21.0.0, SVG Export Plug-In . SVG Version: 6.00 Build 0)  -->
<svg version="1.1" id="图层_1" xmlns="http://www.w3.org/2000/svg" xmlns:xlink="http://www.w3.org/1999/xlink" x="0px" y="0px"
	 viewBox="0 0 200 200" style="enable-background:new 0 0 200 200;" xml:space="preserve">
<style type="text/css">
	.st0{fill:#EDB628;}
</style>
<path class="st0" d="M159.3,155.6h-4.8v-2.3c0-1.9,0.4-3.6,1.1-4.9c0.8-1.4,2.1-2.8,4.1-4.4c1.9-1.5,3.3-2.9,4.1-4.2
	c0.8-1.3,1.2-2.8,1.2-4.5c0-1.8-0.6-3.3-1.9-4.5c-1.3-1.2-3-1.7-5.2-1.7c-3.5,0-6.5,1.3-9.2,4v-5.6c3.1-1.9,6.4-2.9,9.9-2.9
	c3.5,0,6.4,0.9,8.5,2.8c2.1,1.9,3.2,4.3,3.2,7.3c0,2.1-0.5,4-1.5,5.8c-1,1.7-2.6,3.5-4.9,5.5c-1.9,1.5-3.1,2.8-3.7,3.7
	c-0.6,0.9-1,2.2-1,3.8L159.3,155.6L159.3,155.6z M156.9,161.3c1,0,1.8,0.3,2.5,1c0.7,0.7,1,1.5,1,2.5c0,1-0.3,1.8-1,2.5
	c-0.7,0.7-1.5,1-2.5,1c-0.9,0-1.7-0.3-2.4-1c-0.7-0.7-1-1.5-1-2.5c0-1,0.3-1.8,1-2.5C155.1,161.7,156,161.3,156.9,161.3L156.9,161.3
	z"/>
<path class="st0" d="M37.8,100.3h73.3c2.7,0,5,2.5,5.2,5.4c0,2.7-2.9,5.6-5.6,5.6H37.2c-2.7,0-4.4-2.9-4.4-5.6
	C32.8,103,35.1,100.3,37.8,100.3L37.8,100.3L37.8,100.3z M37.8,70h73.3c2.7,0,5,2.5,5.2,5.4c0,2.7-2.9,5.6-5.6,5.6H37.2
	c-2.7,0-4.4-2.9-4.4-5.6C32.8,72.7,35.1,70,37.8,70L37.8,70L37.8,70z M112.8,143.5c0-1.3,0.1-2.5,0.2-3.8c-0.7,0.7-1.6,1.1-2.6,1.1
	H36.9c-2.7,0-5.4-3.3-5.4-6c0-2.7,2.3-5,5-5h73.3c1.9,0,3.5,1,4.5,2.6c4-15.7,16.4-28.2,32.3-32.6V49.9c0-11.2-6.1-19-18.8-19h-9.8
	c0,0-6.8,1.8-6.8,2.8c0,7-5.1,13.8-11.1,13.8H48.2c-6.3,0-11.4-6.9-11.4-13.8c0-0.9-6.1-2.8-6.1-2.8H19.9c-13.8,0-17.1,7.8-17.1,19
	v111.4c0,12.1,4.8,18.8,18.2,18.8h105.8c1.7,0,3.2-0.1,4.7-0.3C120.2,171.6,112.8,158.4,112.8,143.5L112.8,143.5L112.8,143.5z"/>
<path class="st0" d="M57,36h34.2c4,0,7.3-3.7,7.3-8.3c0-4.6-3.3-8.3-7.5-8.3H57c-4.2,0-7.5,3.7-7.5,8.3C49.5,32.3,52.9,36,57,36
	L57,36L57,36z"/>
<path class="st0" d="M159.2,180.6c-20.9,0-37.8-16.6-37.8-37.1c0-20.5,17-37.1,37.8-37.1s37.8,16.6,37.8,37.1
	C197,164,180.1,180.6,159.2,180.6L159.2,180.6z M159.2,109.9c-18.9,0-34.2,15.1-34.2,33.6c0,18.5,15.4,33.6,34.2,33.6
	s34.2-15.1,34.2-33.6C193.4,125,178.1,109.9,159.2,109.9L159.2,109.9z"/>
</svg>
