<svg id="图层_1" data-name="图层 1" xmlns="http://www.w3.org/2000/svg" viewBox="0 0 200 200"><defs><style>.cls-1{fill:#3d4470;}.cls-2{fill:#3d446e;}.cls-3{fill:none;stroke:#3d4470;stroke-miterlimit:10;stroke-width:5px;}</style></defs><title>支付完成1</title><path class="cls-1" d="M38.53,97.68h73.32c2.71,0,5,2.51,5.21,5.43a6.16,6.16,0,0,1-5.56,5.63H38c-2.71,0-4.44-2.91-4.44-5.63s2.29-5.43,5-5.43h0Zm0-30.28h73.32c2.71,0,5,2.51,5.21,5.43a6.16,6.16,0,0,1-5.56,5.63H38c-2.71,0-4.44-2.91-4.44-5.63s2.29-5.43,5-5.43h0Zm75,73.49c0-1.28.09-2.54.2-3.8a3.69,3.69,0,0,1-2.57,1.13H37.66c-2.71,0-5.41-3.32-5.41-6a5.09,5.09,0,0,1,5-5h73.32a5.14,5.14,0,0,1,4.45,2.61A45.86,45.86,0,0,1,147.35,97.2V47.3c0-11.24-6.07-19-18.78-19h-9.79s-6.85,1.82-6.85,2.75c0,7-5.06,13.83-11.07,13.83H48.91c-6.33,0-11.4-6.86-11.4-13.83,0-.93-6.15-2.75-6.15-2.75H20.67c-13.76,0-17.14,7.79-17.14,19V158.66c0,12.08,4.84,18.84,18.18,18.84H127.53a40,40,0,0,0,4.7-.26,45,45,0,0,1-18.66-36.36h0Z"/><path class="cls-2" d="M57.74,33.37H91.91c4,0,7.29-3.71,7.29-8.3s-3.33-8.28-7.5-8.28h-34c-4.17,0-7.5,3.7-7.5,8.28s3.34,8.3,7.5,8.3h0Z"/><path class="cls-1" d="M159.91,178c-20.87,0-37.85-16.64-37.85-37.08s17-37.09,37.85-37.09,37.85,16.64,37.85,37.09S180.78,178,159.91,178Zm0-70.64c-18.88,0-34.24,15.05-34.24,33.56s15.36,33.55,34.24,33.55,34.24-15.05,34.24-33.55-15.36-33.56-34.24-33.56Z"/><polyline class="cls-3" points="132.33 138.5 154.5 161 186 125.5"/></svg>