<svg id="图层_1" data-name="图层 1" xmlns="http://www.w3.org/2000/svg" viewBox="0 0 200 200"><defs><style>.cls-1{fill:#b9c5cf;}</style></defs><title>列表</title><path class="cls-1" d="M14.63,24A14.39,14.39,0,1,0,29.1,38.38,14.43,14.43,0,0,0,14.63,24Zm179.08-.83H51.43a5.94,5.94,0,0,0-6,5.92v16.4a5.94,5.94,0,0,0,6,5.92H193.71a5.94,5.94,0,0,0,6-5.92V29.09A5.94,5.94,0,0,0,193.71,23.17Zm0,62.77H51.43a5.94,5.94,0,0,0-6,5.92v16.4a5.94,5.94,0,0,0,6,5.92H193.71a5.94,5.94,0,0,0,6-5.92V91.87A5.94,5.94,0,0,0,193.71,85.94Zm0,62.78H51.43a5.94,5.94,0,0,0-6,5.92V171a5.94,5.94,0,0,0,6,5.92H193.71a5.94,5.94,0,0,0,6-5.92v-16.4A5.94,5.94,0,0,0,193.71,148.72Zm-179.08-62A14.39,14.39,0,1,0,29.1,101.15,14.43,14.43,0,0,0,14.63,86.77Zm0,62.78A14.38,14.38,0,1,0,29.1,163.93a14.43,14.43,0,0,0-14.47-14.38Z"/></svg>