<?xml version="1.0" encoding="utf-8"?>
<!-- Generator: Adobe Illustrator 21.0.0, SVG Export Plug-In . SVG Version: 6.00 Build 0)  -->
<svg version="1.1" id="图层_1" xmlns="http://www.w3.org/2000/svg" xmlns:xlink="http://www.w3.org/1999/xlink" x="0px" y="0px"
	 viewBox="0 0 200 200" style="enable-background:new 0 0 200 200;" xml:space="preserve">
<style type="text/css">
	.st0{fill:#B9C5CF;}
</style>
<path class="st0" d="M199.3,88.3c0,35.5,0,70.6,0,106c0,4.9-1.1,5.7-5.7,5.7c-48.7-0.4-97.7,0-146.4,0
	c-13.6-6.8-18.9-17.7-18.9-32.8c0.4-35.8,0-72.1,0.4-107.9c0-19.2,10.6-29.8,29.8-29.8c20.4,0,40.4-0.4,60.7,0
	c23,0.4,23.4-3.8,21.9,22.3c-1.5,26.4,8.7,36.2,35.5,36.6C184.2,87.9,191.7,88.3,199.3,88.3z"/>
<path class="st0" d="M153.6,0.4c3.4,2.6,6.8,4.9,9.8,7.5c1.5,1.1,2.6,3,2.3,5.3c-0.8,2.3-3,2.3-4.9,2.3c-2.6,0-4.9,0-7.5,0
	c-35.8,0-72.1,0-107.9,0c-20.8,0-29.8,9.4-29.8,29.8c0,37.7,0,75.8,0,113.6c0,3,1.5,7.9-1.9,9.1c-4.5,1.5-6.4-3.4-8.7-6.4
	c-1.9-2.6-3-5.3-4.5-7.9c0-49.4,0-98.9,0-147.9C0.4,1.2,1.2,0,6.1,0C54.8,0.4,104.2,0.4,153.6,0.4z"/>
<path class="st0" d="M198.2,72.8c-10.6,1.1-18.5,1.5-26.4,0c-8.7-1.5-15.5-9.8-16.2-20c-0.4-6.4-3-15.8,1.1-18.1
	c4.9-2.6,9.1,6.4,13.2,10.2C179.3,53.2,188,62.3,198.2,72.8z"/>
</svg>
