<?xml version="1.0" standalone="no"?><!DOCTYPE svg PUBLIC "-//W3C//DTD SVG 1.1//EN" "http://www.w3.org/Graphics/SVG/1.1/DTD/svg11.dtd"><svg t="1505891948558" class="icon" style="" viewBox="0 0 1024 1024" version="1.1" xmlns="http://www.w3.org/2000/svg" p-id="2562" xmlns:xlink="http://www.w3.org/1999/xlink" width="200" height="200"><defs><style type="text/css"></style></defs><path d="M572.437333 330.666667l-128 170.666666-128-170.666666h-42.666666l128 170.666666h-106.666667v42.666667h128l0.32 64.853333-128.32-0.853333v42.666667h128v85.333333h42.666667v-85.333333h128v-42.666667h-128v-64h128v-42.666667h-106.666667l128-170.666666z" fill="#ffffff" p-id="2563"></path><path d="M807.104 778.666667v21.333333c0 58.816-47.850667 106.666667-106.666667 106.666667h-469.333333c-58.816 0-106.666667-47.850667-106.666667-106.666667v-576c0-58.816 47.850667-106.666667 106.666667-106.666667h469.333333c58.816 0 106.666667 47.850667 106.666667 106.666667v21.333333h42.666667v-21.333333c0-82.346667-67.008-149.333333-149.333334-149.333333h-469.333333c-82.325333 0-149.333333 66.986667-149.333333 149.333333v576c0 82.325333 67.008 149.333333 149.333333 149.333333h469.333333c82.325333 0 149.333333-67.008 149.333334-149.333333v-21.333333h-42.666667z" fill="#ffffff" p-id="2564"></path><path d="M763.114667 414.762667h170.666666v42.666666h-170.666666zM763.114667 567.658667h170.666666v42.666666h-170.666666z" fill="#ffffff" p-id="2565"></path></svg>