<?xml version="1.0" standalone="no"?><!DOCTYPE svg PUBLIC "-//W3C//DTD SVG 1.1//EN" "http://www.w3.org/Graphics/SVG/1.1/DTD/svg11.dtd"><svg t="1504256938656" class="icon" style="" viewBox="0 0 1024 1024" version="1.1" xmlns="http://www.w3.org/2000/svg" p-id="16325" xmlns:xlink="http://www.w3.org/1999/xlink" width="200" height="200"><defs><style type="text/css"></style></defs><path d="M681.6 487.2h100.2l202.4-174.4c-8.8-20.8-18.8-40.8-30-60L685.8 483.6l-4.2 3.6M536.8 0v82l82.4-71.2C592.4 5.4 565 1.4 536.8 0M960.6 487.2l58.4-50.2c-3.6-24.6-9.4-48.4-16.4-71.6l-141.8 122 99.8-0.2M793.4 83.6L536.8 304v86.2L846.4 123.6c-16.8-14.6-34.6-27.8-53-40M679.4 27.2L536.8 150v86.2L745.8 56c-21.4-10.8-43.2-20.8-66.4-28.8M925.6 209.2c-12.8-17.4-26.6-34-41.4-49.6L536.8 458.2v29h66.2l322.6-278M488.4 0C216.6 12.8 0 236.6 0 511.4c0 119 40.8 228.2 108.8 315.2l379.4-326.2V0h0.2M521.4 535.6L140.4 863.2C234 962 365.8 1024 512.6 1024c274.8 0 498.6-216.6 511.4-488.4H521.4" p-id="16326" fill="#cdcdcd"></path></svg>