<?xml version="1.0" encoding="utf-8"?>
<!-- Generator: Adobe Illustrator 21.0.0, SVG Export Plug-In . SVG Version: 6.00 Build 0)  -->
<svg version="1.1" id="图层_1" xmlns="http://www.w3.org/2000/svg" xmlns:xlink="http://www.w3.org/1999/xlink" x="0px" y="0px"
	 viewBox="0 0 200.2 200" style="enable-background:new 0 0 200.2 200;" xml:space="preserve">
<style type="text/css">
	.st0{fill:#B9C5CF;}
</style>
<path class="st0" d="M6.2,0h80.2c8.2,0.8,6.2,14.9,6.2,24.1v43.8c0,9.5,1.8,21.2-4.6,23.9c-4.2,1.8-15.3,0.5-20.7,0.5H24.8
	C15,92.3,1.6,94.6,0,86.2V6.1C1.1,3.1,3,1,6.2,0z M17.2,18v57H75V17.2H17.5C17.2,17.3,17.2,17.7,17.2,18z M113.8,0H194
	c3.3,1.2,5.5,3.4,6.2,7.2v78c-0.7,3.2-2.4,6-5.6,6.9c-5.2,1.5-13.9,0.3-20.2,0.3h-41.2c-6.2,0-15.4,1.3-20.4-0.3
	c-7.1-2.2-5.1-15.9-5.1-25.5V25.7C107.6,14.7,105.1,1.5,113.8,0L113.8,0z M124.8,18v57h57.8V17.2H125
	C124.8,17.3,124.8,17.7,124.8,18L124.8,18z M43.6,34.7c8.1-1.5,14.4,3.9,14.5,11.1c0.2,9.6-9.8,14.9-17.5,10.9
	C31.8,52.2,32.4,36.8,43.6,34.7z M151.2,34.7c19-3.5,18.6,26.1,0,23.1C139.4,55.9,139,37,151.2,34.7z M85.8,200H6.5
	c-3.3-1-5.5-3-6.5-6.4v-79.8c0.8-2.3,2.6-5.1,5.4-5.8c5.3-1.5,13.9-0.3,20.2-0.3h41.2c6.1,0,14.9-1.3,20.4,0.3
	c7.5,2.2,5.4,15.6,5.4,25.2v42.2C92.5,185.6,94.8,199.1,85.8,200L85.8,200z M17.2,125.7v57H75v-57.8H17.5
	C17.2,125,17.2,125.4,17.2,125.7L17.2,125.7z M200.2,114.9v22.3c-0.6,7.5-0.1,16.2-0.3,24.1h-57.3v-13c-5.4-0.6-11.9-0.1-17.8-0.3
	c-0.6,16.8-0.1,34.7-0.3,52H114c-9-1.8-6.5-15.1-6.5-25.7v-41.1c0-6.2-1.3-15.5,0.3-20.4c1.8-5.9,9.8-5,17.8-5h39V143h18
	c0.2-11.7-0.4-24,0.3-35.3C191.6,107.2,199.6,107.3,200.2,114.9L200.2,114.9z M44.9,142.2c8.6-0.9,15.7,7.2,12.4,16.2
	c-4.6,12.4-26.7,7.8-22.6-8C35.8,146.1,39.2,142.8,44.9,142.2L44.9,142.2z M162,200h-19.4c0.2-6.8-0.4-14.3,0.3-20.7H162V200
	L162,200z M200.2,179.3v13.5c-0.7,3.8-3,6.1-6.5,7.2H180c0.2-6.8-0.4-14.3,0.3-20.7H200.2z"/>
</svg>
