<?xml version="1.0" standalone="no"?><!DOCTYPE svg PUBLIC "-//W3C//DTD SVG 1.1//EN" "http://www.w3.org/Graphics/SVG/1.1/DTD/svg11.dtd"><svg t="1504493359737" class="icon" style="" viewBox="0 0 1024 1024" version="1.1" xmlns="http://www.w3.org/2000/svg" p-id="6414" xmlns:xlink="http://www.w3.org/1999/xlink" width="200" height="200"><defs><style type="text/css"></style></defs><path d="M257.435175 390.342196c4.944616 3.577478 11.166317 7.089465 18.615986 10.478655 7.081279 3.184529 15.144932 6.27082 24.314779 9.055237 27.867698 8.448416 64.99427 14.350846 109.079324 14.350846 44.093241 0 81.229023-5.90243 109.088534-14.350846 9.168824-2.784416 17.247826-5.869684 24.322965-9.055237 7.449669-3.38919 13.664208-6.9022 18.599613-10.478655 8.843412-6.369058 13.688767-12.853749 13.688767-18.615986 0-5.756097-4.845355-12.215206-13.688767-18.600637-16.119119 7.826246-35.512818 14.032598-56.732096 18.600637-18.993586 4.125971-39.427988 6.91755-60.369949 8.381901-11.552104 0.818645-23.234167 1.25355-34.899858 1.25355-11.682064 0-23.36515-0.433882-34.916231-1.25355-20.933775-1.465374-41.367153-4.256954-60.353576-8.381901-21.23565-4.568039-40.597627-10.774391-56.749492-18.600637-8.816806 6.386454-13.656021 12.845563-13.656021 18.600637C243.780177 377.488447 248.618369 383.973138 257.435175 390.342196zM374.43182 532.626783c-20.901029-1.473561-41.318034-4.264117-60.262502-8.366551-21.219277-4.584412-40.597627-10.789741-56.750515-18.600637-8.800433 6.370081-13.638625 12.837376-13.638625 18.600637 0 5.755074 4.839215 12.222369 13.656021 18.608823 4.944616 3.560082 11.166317 7.090489 18.615986 10.462283 7.089465 3.210112 15.144932 6.28003 24.314779 9.04705 27.867698 8.457626 64.99427 14.359033 109.087511 14.359033 1.367137 0 2.661619-0.064468 4.01136-0.081864l0-1.923816c0-9.619078 2.988054-18.427698 8.325619-26.442232 3.593851-5.39487 8.202822-10.438747 13.794168-15.106046-8.677637 0.467651-17.412578 0.688685-26.13217 0.688685C397.739665 533.872147 386.032019 533.454638 374.43182 532.626783zM257.435175 581.911256c-8.816806 6.370081-13.656021 12.836353-13.656021 18.608823 0 21.400403 64.544015 52.484352 165.674297 52.484352 1.367137 0 2.661619-0.081864 4.01136-0.081864L413.464811 610.098225c-1.350764 0-2.676969 0.032746-4.01136 0.032746C352.916807 610.131995 295.994376 600.544639 257.435175 581.911256zM257.418802 466.593857c4.945639 3.577478 11.183713 7.105838 18.633383 10.478655 7.073092 3.209088 15.113209 6.27082 24.282033 9.055237 27.866674 8.432043 65.001433 14.359033 109.120256 14.359033 44.102451 0 81.237209-5.92699 109.104907-14.359033 9.168824-2.784416 17.2335-5.845125 24.330128-9.055237 7.435343-3.372817 13.656021-6.9022 18.600637-10.478655 8.826016-6.369058 13.656021-12.81998 13.656021-18.6078 0-5.756097-4.845355-12.223393-13.688767-18.59245-16.119119 7.809873-35.489282 14.007015-56.685024 18.59245-18.943444 4.101411-39.3451 6.91755-60.253292 8.374738-11.593036 0.826831-23.332405 1.260713-35.06461 1.260713-11.739369 0-23.486924-0.433882-35.062564-1.260713-20.910239-1.457188-41.310871-4.273327-60.247152-8.374738-21.212114-4.584412-40.573067-10.782577-56.717769-18.59245-8.80862 6.369058-13.646811 12.836353-13.646811 18.59245C243.780177 453.772854 248.618369 460.223776 257.418802 466.593857zM765.355254 632.398114c-16.143679 7.80271-35.530215 14.016225-56.734142 18.608823-18.943444 4.086062-39.336914 6.91755-60.235896 8.368598-11.618619 0.833995-23.348778 1.258667-35.08917 1.258667-11.722996 0-23.455201-0.424672-35.063587-1.258667-5.461385-0.36225-10.929934-0.860601-16.315594-1.426489-11.543917-1.219781-22.858614-2.873444-33.771151-4.903683-3.421936-0.638543-6.801916-1.308809-10.143011-2.038426-8.341992-1.801019-16.372899-3.855818-24.060999-6.163373-11.870352-3.553942-22.841218-7.703449-32.656771-12.444427-8.80862 6.378268-13.638625 12.821003-13.638625 18.59245 0 0.148379 0.073678 0.277316 0.073678 0.425695 0.180102 4.903683 3.790326 10.307763 10.339486 15.717983 1.01512 0.843204 2.112104 1.653663 3.25002 2.481518 4.944616 3.561106 11.158131 7.104815 18.6078 10.454096 0.663102 0.320295 1.277086 0.615007 1.964748 0.932232 6.582929 2.874467 14.048971 5.601578 22.358217 8.130168 27.851325 8.432043 64.977897 14.335497 109.054765 14.335497 44.109614 0 81.237209-5.903453 109.103884-14.335497 9.160637-2.783393 17.2335-5.846148 24.323988-9.0624 7.441483-3.348258 13.656021-6.891967 18.608823-10.454096 8.841366-6.385431 13.664208-12.853749 13.664208-18.625196C778.994902 645.227304 774.17206 638.777405 765.355254 632.398114zM765.330694 708.641589c-38.552038 18.656919-95.466282 28.244274-152.035672 28.244274-56.537667 0-113.451912-9.586332-151.99474-28.244274-8.824993 6.370081-13.654998 12.854772-13.654998 18.624173 0 21.400403 64.527642 52.494585 165.649737 52.494585 101.155864 0 165.699879-31.094182 165.699879-52.494585C778.994902 721.496361 774.164897 715.01167 765.330694 708.641589zM511.395214 0c-282.425348 0-511.37476 228.949412-511.37476 511.37476 0 282.425348 228.949412 511.375783 511.37476 511.375783s511.375783-228.949412 511.375783-511.375783C1022.770998 228.949412 793.820562 0 511.395214 0zM813.173329 727.265762c0 56.366775-100.558254 85.887113-199.878307 85.887113-99.31289 0-199.829188-29.513174-199.829188-85.887113l0-40.915875c-1.350764 0.016373-2.676969 0.032746-4.01136 0.032746-99.329263 0-199.845561-29.488615-199.845561-85.862553L209.608914 295.467385c0-56.382125 100.516298-85.878926 199.845561-85.878926 99.31289 0 199.85477 29.496801 199.85477 85.878926l0 193.443757c1.349741-0.016373 2.660596-0.057305 3.986801-0.057305 93.820805 0 188.671057 26.328645 198.912305 76.767408l0.966001 0L813.174352 727.265762z" fill="#b9c5cf" p-id="6415"></path></svg>