<?xml version="1.0" encoding="utf-8"?>
<!-- Generator: Adobe Illustrator 21.0.0, SVG Export Plug-In . SVG Version: 6.00 Build 0)  -->
<svg version="1.1" id="图层_1" xmlns="http://www.w3.org/2000/svg" xmlns:xlink="http://www.w3.org/1999/xlink" x="0px" y="0px"
	 viewBox="0 0 200 200" style="enable-background:new 0 0 200 200;" xml:space="preserve">
<style type="text/css">
	.st0{fill:#B9C5CF;}
</style>
<path class="st0" d="M105.9,98.5V80.8c3.2,0.4,5.6,1.4,6.9,2.2l1.8-5.2c-1.8-1.1-4.8-2-8.6-2.3V70h-8.6v6.3c-6,1.9-9.7,6.7-9.7,12.5
	c0,5.9,3.6,9.8,9.7,12.7V121c-3.5-0.4-6.7-1.6-9-3.1l-1.7,5.4c2.3,1.5,6.5,2.8,10.7,3.2v5.4h8.6v-6.2c7.1-2,10.6-7.5,10.6-13.5
	C116.6,105.5,113,101.6,105.9,98.5L105.9,98.5z M97.3,94.3c-2.2-1.6-3.2-3.5-3.2-6.2c0-2.1,1-4.3,3.2-5.8V94.3L97.3,94.3z
	 M105.9,119.8v-14.3c2.9,1.9,4.1,4.2,4.1,7.3C110.1,115.9,108.6,118.3,105.9,119.8L105.9,119.8z"/>
<path class="st0" d="M100,0C44.8,0,0,44.8,0,100c0,55.2,44.8,100,100,100c55.2,0,100-44.8,100-100C200,44.8,155.2,0,100,0z
	 M71.6,48.6c0-8.5,11.6-15.3,26.5-15.3c14.8,0,26.5,6.7,26.5,15.3v2h-9.2v-2c0-5-7.9-9.3-17.2-9.3c-9.4,0-17.3,4.2-17.3,9.3v2h-9.2
	L71.6,48.6L71.6,48.6z M28.5,149V51.4h13.7v5.4h13.7v-5.4h87.3v5.4h13.7v-5.4H172V149H28.5L28.5,149z"/>
</svg>
